<?xml version="1.0" encoding="utf-8"?>
<!-- Generator: Adobe Illustrator 23.0.3, SVG Export Plug-In . SVG Version: 6.00 Build 0)  -->
<svg version="1.1" id="Ebene_1" xmlns="http://www.w3.org/2000/svg" xmlns:xlink="http://www.w3.org/1999/xlink" x="0px" y="0px"
	 viewBox="0 0 212.1 158.8" style="enable-background:new 0 0 212.1 158.8;" xml:space="preserve">
<style type="text/css">
	.st0{fill:#96BE0F;}
	.st1{fill:#FFFFFF;}
</style>
<g>
	<g>
		<path class="st0" d="M105.4,63.1C104.6,62.1,54.9,0,54.9,0h102.8c0,0-49.8,62.2-50.5,63.1C106.5,64,106.2,64,105.4,63.1"/>
		<path class="st1" d="M154.5,17.7c29.1,13.6,48.7,39.2,48.7,68.5c0,29.3-19.6,54.9-48.7,68.5c34.5-12.7,58.1-38.6,58.1-68.5
			C212.6,56.3,189,30.4,154.5,17.7"/>
		<path class="st1" d="M9.4,86.2c0-29.3,19.6-54.9,48.7-68.5C23.6,30.4,0,56.3,0,86.2c0,29.9,23.6,55.8,58.1,68.5
			C29,141.2,9.4,115.6,9.4,86.2"/>
		<path class="st1" d="M67.6,76.1c0,17.4,17.3,31.6,38.7,31.6c21.4,0,38.7-14.1,38.7-31.6c0-10.8-6.7-20.3-16.8-26
			c-10.9,13.6-20.6,25.7-20.9,26.1c-0.7,1-1,1-1.8,0c-0.3-0.4-10-12.5-20.9-26.1C74.3,55.8,67.6,65.3,67.6,76.1"/>
		<path class="st1" d="M43,81.2c0,28.5,28.3,51.7,63.3,51.7c34.9,0,63.3-23.1,63.3-51.7c0-18.8-12.4-35.3-30.8-44.3
			c-2.2,2.8-4.5,5.6-6.8,8.4c12.1,6.7,20,18,20,30.8c0,20.6-20.5,37.3-45.7,37.3c-25.2,0-45.7-16.7-45.7-37.3
			c0-12.8,7.9-24.1,20-30.8c-2.3-2.8-4.5-5.7-6.8-8.4C55.4,45.9,43,62.3,43,81.2"/>
		<path class="st1" d="M195.9,86.2c0-27.4-18.4-51.2-45.7-63.7c-2.3,2.9-4.9,6.1-7.6,9.5c20.4,10.1,34,28.3,34,49.1
			c0,31.7-31.5,57.4-70.3,57.4c-38.8,0-70.3-25.7-70.3-57.4C36,60.3,49.6,42.1,70,32c-2.8-3.4-5.4-6.7-7.6-9.5
			C35.1,35.1,16.7,58.9,16.7,86.2c0,40.4,40.1,73.2,89.6,73.2C155.8,159.4,195.9,126.7,195.9,86.2"/>
	</g>
</g>
</svg>
