<?xml version="1.0" encoding="utf-8"?>
<!-- Generator: Adobe Illustrator 23.0.3, SVG Export Plug-In . SVG Version: 6.00 Build 0)  -->
<svg version="1.1" id="Capa_1" xmlns="http://www.w3.org/2000/svg" xmlns:xlink="http://www.w3.org/1999/xlink" x="0px" y="0px"
	 viewBox="0 0 314 243" style="enable-background:new 0 0 314 243;" xml:space="preserve">
<path d="M299.5,29h-285C6.5,29,0,22.5,0,14.5S6.5,0,14.5,0h285c8,0,14.5,6.5,14.5,14.5S307.5,29,299.5,29z"/>
<path d="M299.5,136h-285c-8,0-14.5-6.5-14.5-14.5S6.5,107,14.5,107h285c8,0,14.5,6.5,14.5,14.5S307.5,136,299.5,136z"/>
<path d="M299.5,243h-285c-8,0-14.5-6.5-14.5-14.5S6.5,214,14.5,214h285c8,0,14.5,6.5,14.5,14.5S307.5,243,299.5,243z"/>
</svg>
