<svg version="1.1" id="Ebene_1" xmlns="http://www.w3.org/2000/svg" xmlns:xlink="http://www.w3.org/1999/xlink" x="0px" y="0px"
	 viewBox="0 0 279.2 245.4" style="enable-background:new 0 0 279.2 245.4;" xml:space="preserve">
<style type="text/css">
	.st0{fill:#96BE0F;}
	.st1{fill:#005A91;}
	.st2{fill:#A0A0A0;}
</style>
<g>
	<g>
		<path class="st0" d="M126.7,63.1C125.9,62.1,76.2,0,76.2,0h102.8c0,0-49.8,62.2-50.5,63.1C127.7,64,127.4,64,126.7,63.1"/>
		<path class="st1" d="M175.8,17.7c29.1,13.6,48.7,39.2,48.7,68.5c0,29.3-19.6,54.9-48.7,68.5c34.5-12.7,58.1-38.6,58.1-68.5
			C233.9,56.3,210.2,30.4,175.8,17.7"/>
		<path class="st1" d="M30.7,86.2c0-29.3,19.6-54.9,48.7-68.5C44.9,30.4,21.3,56.3,21.3,86.2c0,29.9,23.6,55.8,58.1,68.5
			C50.3,141.2,30.7,115.6,30.7,86.2"/>
		<path class="st1" d="M88.9,76.1c0,17.4,17.3,31.6,38.7,31.6c21.4,0,38.7-14.1,38.7-31.6c0-10.8-6.7-20.3-16.8-26
			c-10.9,13.6-20.6,25.7-20.9,26.1c-0.7,1-1,1-1.8,0c-0.3-0.4-10-12.5-20.9-26.1C95.6,55.8,88.9,65.3,88.9,76.1"/>
		<path class="st1" d="M64.3,81.2c0,28.5,28.3,51.7,63.3,51.7c34.9,0,63.3-23.1,63.3-51.7c0-18.8-12.4-35.3-30.8-44.3
			c-2.2,2.8-4.5,5.6-6.8,8.4c12.1,6.7,20,18,20,30.8c0,20.6-20.5,37.3-45.7,37.3c-25.2,0-45.7-16.7-45.7-37.3
			c0-12.8,7.9-24.1,20-30.8c-2.3-2.8-4.5-5.7-6.8-8.4C76.7,45.9,64.3,62.3,64.3,81.2"/>
		<path class="st1" d="M217.2,86.2c0-27.4-18.4-51.2-45.7-63.7c-2.3,2.9-4.9,6.1-7.6,9.5c20.4,10.1,34,28.3,34,49.1
			c0,31.7-31.5,57.4-70.3,57.4c-38.8,0-70.3-25.7-70.3-57.4c0-20.8,13.6-39.1,34-49.1c-2.8-3.4-5.4-6.7-7.6-9.5
			C56.4,35.1,37.9,58.9,37.9,86.2c0,40.4,40.1,73.2,89.6,73.2C177.1,159.4,217.2,126.7,217.2,86.2"/>
		<path class="st2" d="M227.9,229.8c-7,0-11.7-7.2-11.7-17.4v-0.2c0-10.1,4.6-17.3,11.6-17.3c7,0,11.7,7.3,11.7,17.5v0.2
			C239.4,222.7,234.9,229.8,227.9,229.8 M227.7,245.4c18.1,0,29.4-15,29.4-32.9v-0.2c0-17.9-11.2-32.8-29.2-32.8
			c-18,0-29.4,15-29.4,32.9v0.2C198.5,230.6,209.7,245.4,227.7,245.4 M165.8,229.8c-7,0-11.7-7.2-11.7-17.4v-0.2
			c0-10.1,4.6-17.3,11.6-17.3c7,0,11.7,7.3,11.7,17.5v0.2C177.3,222.7,172.8,229.8,165.8,229.8 M165.6,245.4
			c18.1,0,29.4-15,29.4-32.9v-0.2c0-17.9-11.2-32.8-29.2-32.8c-18,0-29.4,15-29.4,32.9v0.2C136.4,230.6,147.6,245.4,165.6,245.4
			 M107.2,245.4c15.4,0,26.1-8.5,26.1-22.5v-0.2c0-13.8-10.3-20.1-21.7-20.1c-4.2,0-7.2,0.9-10.1,2.3l0.5-9.6h28.5v-14.5H88.2
			l-1.8,32l10.4,5.9c3-1.8,6.2-3.2,10.1-3.2c5.5,0,9.3,2.7,9.3,7.3v0.2c0,4.5-3.4,7.4-9.2,7.4c-5.4,0-10.3-2.5-15.4-6.9l-10,11.8
			C88.2,241.5,96,245.4,107.2,245.4 M43.9,212.3v-16.7h8.3c6.2,0,10.1,2.8,10.1,8.2v0.2c0,5-3.9,8.3-10,8.3H43.9z M26.4,244.1h17.5
			V226h8.8c15.6,0,27.1-7.9,27.1-22.9V203c0-13.9-10.3-22.2-26.2-22.2H26.4V244.1z M0,244.1h17.5v-63.3H0V244.1z"/>
		<path class="st2" d="M266.7,190v-2h1.5c0.8,0,1.2,0.3,1.2,1c0,0.6-0.4,1-1.3,1H266.7z M263.9,194.7h2.8v-2.6h0.8l1.8,2.6h3.2
			l-2.1-3.1c1.1-0.5,1.8-1.4,1.8-2.9c0-2.1-1.6-3.1-4-3.1h-4.4V194.7z M267.8,198.1c-4.3,0-7.6-3.5-7.6-7.7v0c0-4.2,3.3-7.7,7.6-7.7
			c4.3,0,7.6,3.5,7.6,7.7v0.1C275.4,194.6,272.1,198.1,267.8,198.1 M267.8,199c4.8,0,8.6-4,8.6-8.6v-0.1c0-4.7-3.8-8.6-8.6-8.6
			c-4.8,0-8.6,4-8.6,8.6v0C259.2,195.1,262.9,199,267.8,199"/>
	</g>
</g>
</svg>
